Coordinates
version=1
nRows=8
nColumns=33
inDegrees=yes

Units are S.I. units (second, meters, Newtons, ...)
Angles are in degrees.

endheader
time	ground_thorax_rot_x	ground_thorax_rot_y	ground_thorax_rot_z	ground_thorax_tx	ground_thorax_ty	ground_thorax_tz	clav_prot_r	clav_elev_r	scapula_abduction_r	scapula_elevation_r	scapula_upward_rot_r	scapula_winging_r	shoulder_elv_r	plane_of_elev_r	axial_rot_r	elbow_flexion_r	pro_sup_r	wrist_flex_r	wrist_dev_r	clav_prot_l	clav_elev_l	scapula_abduction_l	scapula_elevation_l	scapula_upward_rot_l	scapula_winging_l	shoulder_elv_l	plane_of_elev_l	axial_rot_l	elbow_flexion_l	pro_sup_l	wrist_flex_l	wrist_dev_l
      7.06000000	     28.54029581	     20.40583814	     30.92727081	     -7.19116757	    810.93686051	      8.42109804	     13.01504408	     45.00000000	     45.00000000	     38.85719604	     45.00000000	  -1109.53251060	  -2297.28624698	    -90.00000000	    -51.57357506	   2153.89578007	   -128.51863472	     17.72357028	     17.47499557	     15.86986622	    -45.00000000	    -45.00000000	     45.00000000	    -43.73710946	   1167.84974305	  -2089.86420971	     19.63194374	    -46.04097654	   1805.18298737	     13.30454617	     13.79032609	    -17.62799091
      7.07000000	     28.49310479	     20.32365545	     31.02593569	     -5.32125186	    809.19535872	      8.72296563	     13.01118656	     45.00000000	     45.00000000	     38.45160677	     45.00000000	  -1109.42149084	  -2296.89345874	    -90.00000000	    -51.94627569	   2154.18060296	   -127.73613179	     17.44078329	     16.95568306	     16.34662786	    -45.00000000	    -45.00000000	     45.00000000	    -43.81701592	   1167.70052937	  -2090.04220127	     19.71698739	    -46.04311016	   1804.98954666	     14.12284105	     13.56275213	    -17.62792616
      7.08000000	     28.48723616	     20.06156877	     30.92919994	     -3.75649182	    807.69827836	      8.99541065	     13.03368921	     45.00000000	     45.00000000	     37.97976415	     45.00000000	  -1109.33252937	  -2296.94956392	    -90.00000000	    -51.87049235	   2154.05403480	   -127.13791677	     17.47135120	     16.79525291	     16.08059317	    -45.00000000	    -45.00000000	     45.00000000	    -43.69357948	   1167.53692659	  -2090.08085727	     19.75666209	    -45.71059328	   1804.88061603	     14.77798088	     13.34363888	    -17.62097867
      7.09000000	     28.50635811	     19.78291464	     30.87864069	     -2.52743863	    806.41357986	      9.23709975	     13.03009272	     45.00000000	     45.00000000	     37.59296384	     45.00000000	  -1109.29480654	  -2297.10690686	    -90.00000000	    -51.69411767	   2153.86440368	   -126.69602904	     17.40887798	     16.51210016	     16.08931935	    -45.00000000	    -45.00000000	     45.00000000	    -43.57493387	   1167.46787265	  -2090.16458865	     19.79099487	    -45.38569164	   1804.79061392	     15.37773651	     13.14349746	    -17.62926721
      7.10000000	     28.53427154	     19.53689142	     30.76330167	     -1.65950888	    805.31243354	      9.44420630	     13.03468258	     45.00000000	     45.00000000	     37.34840359	     45.00000000	  -1109.37079983	  -2297.31719892	    -90.00000000	    -51.46426543	   2153.67470327	   -126.36442724	     17.47205594	     16.40169172	     15.94512343	    -45.00000000	    -45.00000000	     45.00000000	    -43.34595360	   1167.35335254	  -2090.22696392	     19.81428772	    -44.98983489	   1804.67051092	     15.97852762	     12.98817403	    -17.63949073
      7.11000000	     28.54880021	     19.13830338	     30.61180476	     -1.16954129	    804.36428983	      9.61351073	     13.03297611	     45.00000000	     45.00000000	     36.92413883	     45.00000000	  -1109.24877746	  -2297.58660331	    -90.00000000	    -51.17728253	   2153.50160967	   -126.13510895	     17.36173953	     16.10437017	     15.88988935	    -45.00000000	    -45.00000000	     45.00000000	    -43.13299750	   1167.47485973	  -2090.25538031	     19.90574833	    -44.46398177	   1804.75876696	     16.46499995	     12.69141425	    -17.68425219
      7.12000000	     28.68586060	     19.00278247	     30.48806378	     -1.05248296	    803.53840496	      9.72675730	     13.03650532	     45.00000000	     45.00000000	     37.02109800	     45.00000000	  -1109.50096268	  -2297.78347920	    -90.00000000	    -50.96385515	   2153.25544788	   -126.01140269	     17.58615209	     16.13664378	     15.73046609	    -45.00000000	    -45.00000000	     45.00000000	    -42.79294019	   1167.32821047	  -2090.36888803	     19.91066316	    -44.01124656	   1804.54588948	     16.98069130	     12.67331378	    -17.69606663
      7.13000000	     28.83259988	     18.69905548	     30.31924864	     -1.28775619	    802.79660561	      9.76627788	     13.04699730	     45.00000000	     45.00000000	     36.87961528	     45.00000000	  -1109.40322276	  -2298.04645522	    -90.00000000	    -50.68207205	   2153.14687832	   -125.88139884	     17.49519695	     15.94399788	     15.66574416	    -45.00000000	    -45.00000000	     45.00000000	    -42.66511058	   1167.33502361	  -2090.46522038	     19.99278228	    -43.46078426	   1804.49512847	     17.52264269	     12.54318054	    -17.73761145
